<svg xmlns="http://www.w3.org/2000/svg" viewBox="0 0 512 512">
    <g transform="translate(0 10.24) scale(1)">
    <g stroke="rgba(255,255,255,0.55)" stroke-width="3" stroke-linejoin="round"><polygon points="256,148 214,98 150,170" fill="rgb(157,205,116)"/><polygon points="214,98 160,78 150,170" fill="rgb(142,192,104)"/><polygon points="160,78 104,90 150,170" fill="rgb(178,222,132)"/><polygon points="104,90 62,132 150,170" fill="rgb(155,204,115)"/><polygon points="62,132 48,192 150,170" fill="rgb(169,215,125)"/><polygon points="48,192 120,250 150,170" fill="rgb(134,186,99)"/><polygon points="48,192 62,256 120,250" fill="rgb(160,207,119)"/><polygon points="62,256 104,320 120,250" fill="rgb(128,181,94)"/><polygon points="104,320 196,300 120,250" fill="rgb(143,194,106)"/><polygon points="104,320 176,392 196,300" fill="rgb(101,159,74)"/><polygon points="176,392 256,360 196,300" fill="rgb(110,166,80)"/><polygon points="176,392 256,452 256,360" fill="rgb(72,135,52)"/><polygon points="150,170 120,250 196,300" fill="rgb(146,196,108)"/><polygon points="150,170 196,300 256,240" fill="rgb(120,174,88)"/><polygon points="150,170 256,240 256,148" fill="rgb(135,186,99)"/><polygon points="196,300 256,360 256,240" fill="rgb(96,155,69)"/><polygon points="256,148 298,98 362,170" fill="rgb(34,82,195)"/><polygon points="298,98 352,78 362,170" fill="rgb(25,65,168)"/><polygon points="352,78 408,90 362,170" fill="rgb(33,80,191)"/><polygon points="408,90 450,132 362,170" fill="rgb(21,57,156)"/><polygon points="450,132 464,192 362,170" fill="rgb(23,62,163)"/><polygon points="464,192 392,250 362,170" fill="rgb(14,44,136)"/><polygon points="464,192 450,256 392,250" fill="rgb(19,54,151)"/><polygon points="450,256 408,320 392,250" fill="rgb(11,38,126)"/><polygon points="408,320 316,300 392,250" fill="rgb(21,58,157)"/><polygon points="408,320 336,392 316,300" fill="rgb(10,36,123)"/><polygon points="336,392 256,360 316,300" fill="rgb(19,53,150)"/><polygon points="336,392 256,452 256,360" fill="rgb(9,34,120)"/><polygon points="362,170 392,250 316,300" fill="rgb(24,63,166)"/><polygon points="362,170 316,300 256,240" fill="rgb(21,57,156)"/><polygon points="362,170 256,240 256,148" fill="rgb(28,71,178)"/><polygon points="316,300 256,360 256,240" fill="rgb(18,50,146)"/></g>
    <polyline points="256,148 256,240 256,360 256,452" fill="none" stroke="rgba(255,255,255,0.9)" stroke-width="6" stroke-linejoin="round"/>
    <polygon points="256,148 214,98 160,78 104,90 62,132 48,192 62,256 104,320 176,392 256,452 336,392 408,320 450,256 464,192 450,132 408,90 352,78 298,98 256,148" fill="none" stroke="rgba(10,40,45,0.7)" stroke-width="7" stroke-linejoin="round"/></g></svg>